<?xml version="1.0" encoding="utf-8"?>
<!-- Generator: Adobe Illustrator 23.0.4, SVG Export Plug-In . SVG Version: 6.00 Build 0)  -->
<svg version="1.1" xmlns="http://www.w3.org/2000/svg" xmlns:xlink="http://www.w3.org/1999/xlink" x="0px" y="0px"
	 viewBox="0 0 202.42 180.47" style="enable-background:new 0 0 202.42 180.47;" xml:space="preserve">
<style type="text/css">
	.helping-families-logo{fill:#1B1464;}
</style>
<g id="Heart">
	<g id="Y7FsgZ.tif">
		<g>
			<path class="helping-families-logo" d="M202.46,62.49c-1.04,15.11-6.34,28.69-15.33,40.72c-4.94,6.62-10.32,12.97-16.44,18.58
				c-5.57,5.11-11.15,10.23-17.05,14.94c-5.56,4.45-10.92,9.16-16.66,13.37c-5.64,4.13-10.79,8.85-16.33,13.08
				c-5.97,4.57-11.37,9.74-16.85,14.85c-0.72,0.67-1.57,1.21-3.06,2.42c-1.64-1.94-3.13-4.03-4.96-5.78
				c-8.1-7.76-16.96-14.63-25.73-21.59c-5.35-4.25-10.57-8.68-16.04-12.78c-6.13-4.59-11.61-9.9-17.42-14.83
				c-6.08-5.16-11.21-11.17-16.43-17.14c-8.59-9.82-14.14-21.1-17.69-33.6C-0.46,64.4-0.84,54.02,1.62,43.75
				c2.6-10.84,7.35-20.9,15.91-28.47C31.72,2.73,48.3-2.22,67.07,0.97c13.62,2.31,24.98,8.83,34.12,19.23
				c2.01-1.03,3.27-2.83,4.88-4.23C124.42-0.1,145.02-4.13,168,4.28c6.33,2.32,11.69,6.08,16.73,10.46
				c11.21,9.73,16.12,22.44,17.69,36.78C202.43,55.17,202.45,58.83,202.46,62.49z M101.27,24.59C91.39,13.48,79.18,7.09,64.54,5.88
				c-19.03-1.57-34.88,5.13-47.04,19.8c-6.83,8.25-9.98,18.2-10.63,28.84C5.86,71.05,9.81,86.18,19.62,99.71
				c5.13,7.08,10.48,13.91,17.01,19.8c5.78,5.21,11.3,10.68,17.53,15.4c5.33,4.03,10.42,8.37,15.65,12.52
				c9.22,7.33,18.59,14.51,27.1,22.71c1.45,1.4,2.92,2.79,4.41,4.22c0.85-0.64,1.64-1.14,2.32-1.77
				c5.49-5.09,10.88-10.27,16.88-14.8c5.57-4.2,10.7-8.94,16.36-13.06c5.87-4.27,11.21-9.23,16.95-13.69
				c5.97-4.64,11.23-10.12,16.69-15.34c6.59-6.3,11.91-13.72,16.62-21.47c6.08-10.01,9.08-21.09,9.31-32.82
				c0.26-13.37-2.6-25.77-11.52-36.28c-4.76-5.62-10.06-10.45-16.82-13.6c-21.06-9.79-40.79-7.55-59.29,6.35
				C106.17,19.87,104.14,22.58,101.27,24.59z"/>

		</g>
	</g>
</g>
<g id="Left_Hand">
	<path class="helping-families-logo" d="M51.05,54.31c0.49,0.15,1.01,0.24,1.45,0.45c1.55,0.76,3.05,1.57,4.59,2.34c1.75,0.88,3.44,1.87,5.3,2.59
		c2.92,1.13,5.6,2.52,8.24,4c0.85,0.47,1.76,0.88,2.61,1.35c0.98,0.53,2.67,0.44,3.52-0.41c0.81-0.81,1.41-1.65,0.95-2.72
		c-0.1-0.24-0.25-0.49-0.48-0.65c-0.79-0.55-1.62-1.07-2.45-1.59c-1.88-1.15-3.77-2.29-5.67-3.43c-1.63-0.98-3.21-2.03-4.92-2.92
		c-1.2-0.63-2.61-1.01-3.87-1.57c-1.42-0.62-2.78-1.32-4.15-2c-0.11-0.06-0.2-0.33-0.13-0.39c0.22-0.21,0.28-0.68,0.82-0.51
		c1.94,0.63,3.88,1.26,5.78,1.96c1.78,0.66,3.48,1.44,5.43,1.8c1.43,0.27,2.73,0.82,4.01,1.43c1.23,0.59,2.62,0.98,3.97,1.4
		c1.05,0.33,2.15,0.44,3.31,0.42c1.96-0.03,2.7-1.84,2.23-2.87c-0.44-0.95-1.45-1.45-2.48-1.94c-2.48-1.16-4.93-2.35-7.46-3.44
		c-1.84-0.79-3.76-1.46-5.67-2.15c-2.09-0.75-4.27-1.36-6.29-2.21c-1.65-0.7-3.11-1.69-4.67-2.52c-0.93-0.5-1.91-0.93-2.44-1.77
		c-0.38-0.6-0.83-1.18-1.24-1.77c-0.09-0.13-0.1-0.31-0.21-0.43c-0.62-0.61-0.33-1.18,0.07-1.75c0.89-1.29,2.15-2.28,3.94-2.74
		c1.29-0.34,2.65-0.52,3.96-0.83c2.25-0.53,4.47-1.08,6.32-2.31c1.3-0.86,2.49-1.78,3.19-2.98c0.48-0.82,0.84-1.72,0.22-2.64
		c-0.61-0.9-2.28-1.68-3.51-0.79c-0.71,0.51-1.56,0.93-2.43,1.25c-0.75,0.28-1.64,0.32-2.44,0.53c-1.23,0.33-2.43,0.72-3.66,1.06
		c-2.03,0.56-4.14,0.73-6.29,0.78c-1.06,0.02-2.13,0.06-3.17,0.2c-0.89,0.11-1.74,0.38-2.62,0.55c-1.87,0.36-3.74,0.73-5.63,1.02
		c-1.81,0.28-3.65,0.47-5.48,0.7c-0.09,0.01-0.19,0.01-0.25,0.05c-0.91,0.54-1.48-0.03-1.96-0.44c-1.08-0.95-2.09-1.95-3.06-2.97
		c-1.29-1.34-2.52-2.72-3.76-4.09c-0.72-0.79-1.33-1.64-2.13-2.37c-1.07-0.97-2.08-1.16-3.62-0.17c-2.42,1.56-4.37,3.44-6.14,5.45
		c-1.24,1.42-2.57,2.79-3.78,4.22c-1,1.18-1.78,2.45-2.13,3.86c-0.17,0.7,0.2,1.22,0.84,1.6c2.36,1.42,4.71,2.84,6.83,4.49
		c0.76,0.59,1.18,1.27,1.6,2.01c0.53,0.92,1.14,1.82,1.73,2.72c0.94,1.43,1.84,2.88,2.86,4.27c0.74,1.01,1.59,1.99,2.48,2.93
		c0.77,0.8,1.68,1.51,2.51,2.28c0.97,0.88,1.89,1.8,2.89,2.66c0.71,0.61,1.5,1.18,2.29,1.73c1.41,0.98,2.9,1.88,4.25,2.9
		c0.91,0.69,1.73,1.49,2.4,2.33c1.41,1.75,2.73,3.54,4.48,5.12c0.88,0.8,1.47,1.79,2.26,2.65c0.72,0.78,1.48,1.56,2.33,2.26
		c1.51,1.23,2.74,1.08,4.37,0c0.3-0.2,0.38-0.67,0.45-1.03c0.18-0.92-0.46-1.65-1.02-2.39c-0.72-0.96-1.42-1.94-2.15-2.9
		c-1.3-1.72-2.59-3.45-3.95-5.14c-0.61-0.76-1.39-1.43-2.06-2.15c-0.32-0.35-0.61-0.76-0.09-1.15c0.63-0.49,1.49-0.58,2.07-0.28
		c0.63,0.33,1.34,0.59,1.9,0.98c1.25,0.86,2.49,1.74,3.62,2.7c1.67,1.41,3.8,2.3,5.77,3.37c2.11,1.14,4.25,2.25,6.39,3.36
		c1.2,0.62,2.41,1.22,3.87,1.41c2.29,0.29,4.14-1.23,3.5-2.92c-0.12-0.33-0.47-0.66-0.82-0.87c-2.62-1.55-5.31-3.03-7.88-4.62
		c-1.32-0.82-2.41-1.86-3.69-2.72c-1.21-0.82-2.53-1.55-3.81-2.31c-0.55-0.33-1.14-0.63-1.7-0.95c-0.13-0.07-0.22-0.18-0.33-0.27
		C50.99,54.4,51.02,54.35,51.05,54.31z"/>
</g>
<g id="Right_Hand">
	<g>
		<path class="helping-families-logo" d="M120.78,93.77c-0.86,0.34-1.79,0.56-2.56,1.05c-2.72,1.75-5.38,3.61-8.08,5.39c-3.09,2.03-6.07,4.3-9.35,5.96
			c-5.16,2.61-9.88,5.83-14.52,9.22c-1.49,1.09-3.1,2.03-4.61,3.1c-1.72,1.22-4.73,1.05-6.26-0.88c-1.46-1.84-2.54-3.72-1.75-6.15
			c0.18-0.54,0.44-1.12,0.84-1.49c1.39-1.26,2.84-2.47,4.31-3.64c3.31-2.65,6.64-5.27,9.98-7.89c2.87-2.26,5.66-4.66,8.67-6.71
			c2.12-1.44,4.6-2.33,6.84-3.62c2.5-1.44,4.9-3.04,7.32-4.61c0.2-0.13,0.35-0.75,0.23-0.9c-0.39-0.48-0.52-1.54-1.46-1.14
			c-3.42,1.47-6.86,2.93-10.21,4.55c-3.15,1.52-6.13,3.33-9.6,4.18c-2.54,0.63-4.83,1.91-7.08,3.32c-2.17,1.36-4.62,2.28-7.01,3.25
			c-1.86,0.76-3.81,1.04-5.87,1.01c-3.47-0.04-4.83-4.13-4.02-6.47c0.75-2.17,2.54-3.33,4.36-4.44c4.37-2.66,8.7-5.42,13.16-7.93
			c3.24-1.83,6.64-3.38,10.01-4.97c3.69-1.74,7.55-3.16,11.11-5.13c2.92-1.62,5.47-3.88,8.23-5.8c1.64-1.14,3.37-2.15,4.3-4.06
			c0.67-1.37,1.45-2.69,2.17-4.04c0.16-0.3,0.16-0.71,0.37-0.97c1.09-1.38,0.56-2.67-0.16-3.97c-1.61-2.9-3.87-5.13-7.06-6.16
			c-2.3-0.74-4.71-1.14-7.04-1.82c-4-1.16-7.95-2.38-11.26-5.13c-2.32-1.93-4.46-4-5.73-6.71c-0.86-1.84-1.53-3.89-0.44-5.98
			c1.07-2.05,4-3.85,6.2-1.85c1.26,1.15,2.79,2.09,4.34,2.8c1.34,0.62,2.91,0.7,4.34,1.16c2.19,0.72,4.33,1.6,6.51,2.34
			c3.62,1.23,7.37,1.6,11.17,1.67c1.88,0.04,3.78,0.11,5.63,0.39c1.58,0.24,3.1,0.84,4.66,1.2c3.33,0.77,6.66,1.59,10.02,2.22
			c3.22,0.61,6.49,1.01,9.73,1.5c0.15,0.02,0.33,0.03,0.45,0.11c1.62,1.21,2.63-0.09,3.46-1.04c1.89-2.17,3.66-4.46,5.36-6.79
			c2.25-3.07,4.41-6.22,6.58-9.34c1.25-1.8,2.32-3.74,3.73-5.41c1.87-2.21,3.67-2.67,6.42-0.44c4.32,3.49,7.83,7.74,11.01,12.27
			c2.24,3.19,4.61,6.29,6.8,9.52c1.8,2.66,3.21,5.53,3.87,8.73c0.32,1.58-0.34,2.76-1.46,3.65c-4.15,3.27-8.29,6.54-12.02,10.3
			c-1.33,1.34-2.07,2.91-2.79,4.58c-0.92,2.11-1.98,4.15-3.01,6.21c-1.64,3.26-3.21,6.56-4.98,9.74c-1.29,2.32-2.77,4.54-4.34,6.68
			c-1.34,1.83-2.94,3.47-4.4,5.21c-1.7,2.02-3.31,4.12-5.07,6.09c-1.25,1.41-2.63,2.71-4.03,3.97c-2.47,2.24-5.11,4.31-7.47,6.66
			c-1.6,1.59-3.03,3.41-4.21,5.33c-2.46,4-4.77,8.08-7.83,11.7c-1.54,1.83-2.57,4.08-3.96,6.05c-1.26,1.79-2.58,3.56-4.08,5.16
			c-2.65,2.83-4.83,2.51-7.75,0.08c-0.54-0.45-0.69-1.51-0.82-2.32c-0.34-2.09,0.79-3.75,1.76-5.45c1.26-2.2,2.48-4.43,3.75-6.62
			c2.27-3.93,4.51-7.87,6.89-11.74c1.06-1.73,2.43-3.26,3.6-4.92c0.56-0.8,1.06-1.73,0.14-2.61c-1.14-1.09-2.66-1.29-3.67-0.6
			c-1.11,0.76-2.36,1.37-3.35,2.26c-2.2,1.98-4.38,4-6.36,6.19c-2.92,3.23-6.69,5.28-10.17,7.75c-3.71,2.63-7.49,5.18-11.26,7.73
			c-2.11,1.43-4.25,2.82-6.83,3.27c-4.05,0.71-7.37-2.72-6.28-6.57c0.21-0.74,0.81-1.5,1.44-1.98c4.61-3.57,9.35-6.97,13.88-10.62
			c2.33-1.88,4.24-4.26,6.48-6.24c2.13-1.88,4.45-3.56,6.7-5.31c0.98-0.76,2.01-1.44,3-2.18c0.22-0.16,0.38-0.41,0.57-0.61
			C120.9,93.96,120.84,93.86,120.78,93.77z"/>
	</g>
</g>
</svg>
